<?xml version="1.0" encoding="utf-8"?>
<!-- Generator: Adobe Illustrator 23.0.1, SVG Export Plug-In . SVG Version: 6.00 Build 0)  -->
<svg version="1.1" id="Layer_1" xmlns="http://www.w3.org/2000/svg" xmlns:xlink="http://www.w3.org/1999/xlink" x="0px" y="0px"
	 viewBox="0 0 300 300" style="enable-background:new 0 0 300 300;" xml:space="preserve">
<style type="text/css">
	.st0{fill:url(#Shape_1_);}
	.st1{fill:none;}
</style>
<linearGradient id="Shape_1_" gradientUnits="userSpaceOnUse" x1="457.2154" y1="199.3224" x2="458.6735" y2="200.7845" gradientTransform="matrix(180 0 0 -179.5068 -82280 36061.3633)">
	<stop  offset="0" style="stop-color:#00AEE9"/>
	<stop  offset="1" style="stop-color:#69FABD"/>
</linearGradient>
<path id="Shape" class="st0" d="M235.3,0c-35.7,0-64.6,28.9-64.7,64.7v71.7c-6.7,0.5-13.5,0.7-20.6,0.7s-13.8,0.3-20.6,0.7V64.7
	c-0.6-35.4-29.4-63.9-64.7-63.9S0.6,29.3,0,64.7v171.4C0.6,271.6,29.4,300,64.7,300s64.2-28.4,64.7-63.9v-71.7
	c6.7-0.5,13.5-0.7,20.6-0.7s13.8-0.3,20.6-0.7v73.2c0.6,35.4,29.4,63.9,64.7,63.9s64.2-28.4,64.7-63.9V64.7
	C299.9,28.9,271,0,235.3,0z M64.7,26.5c21.1,0,38.1,17.1,38.2,38.2v76c-18.9,2.8-37.4,8-55,15.6c-7.6,3.4-14.8,7.6-21.3,12.8V64.7
	C26.6,43.6,43.7,26.5,64.7,26.5z M102.9,236.1c0,21.2-17.1,38.3-38.2,38.3s-38.2-17.1-38.2-38.3v-17.2c0-15.2,12-29.6,32.1-38.5
	c14.2-6.1,29-10.5,44.3-13V236.1z M235.3,274.3c-21.1,0-38.1-17.1-38.2-38.2v-76c18.9-2.8,37.4-8,55-15.6
	c7.6-3.4,14.8-7.6,21.3-12.8v104.3C273.4,257.2,256.3,274.3,235.3,274.3z M241.4,120.3c-14.2,6.1-29,10.5-44.3,13V64.7
	c0-21.2,17.1-38.3,38.2-38.3s38.2,17.1,38.2,38.3v17.2C273.5,97,261.5,111.4,241.4,120.3z"/>
<rect class="st1" width="1020" height="300"/>
</svg>
